<?xml version="1.0" encoding="utf-8"?>
<!-- Generator: Adobe Illustrator 25.2.3, SVG Export Plug-In . SVG Version: 6.00 Build 0)  -->
<svg version="1.1" id="Layer_1" xmlns="http://www.w3.org/2000/svg" xmlns:xlink="http://www.w3.org/1999/xlink" x="0px" y="0px"
	 viewBox="0 0 259.6 259.6" style="enable-background:new 0 0 259.6 259.6;" xml:space="preserve">
<style type="text/css">
	.st0{fill:#3D2A76;}
	.st1{fill:#EA328A;}
</style>
<g>
	<circle class="st0" cx="129.8" cy="129.8" r="129.8"/>
	<g>
		<path class="st1" d="M187.1,162h-9.2c-0.4-0.8-0.6-1.2-0.6-1.2s-5-10.9-17.4-13.7c11.9-3.5,20-11.1,24-19.9h9.2
			c1.8-4,2.8-8.3,2.8-12.6c0-4.4-0.4-8.6-1.3-12.6c-3.9-17.5-16.8-29.8-42.2-32.2c-0.1,0-0.1,0-0.2,0c-0.9-0.1-1.8-0.2-2.7-0.2
			c-0.1,0-0.3,0-0.4,0c-0.8-0.1-1.7-0.1-2.6-0.1c-0.2,0-0.4,0-0.6,0c-1,0-2.1,0-3.2,0c0,0,0,0,0,0l-8.1,0l-29.3,0H70.6V102v25.2
			h-9.2V162h9.2v28.8h26.2h8.6h0v-24.7h0V162h3.2l1.2,0l0,0l21.9,0.1c11.4,0,15,6.7,22.3,23.3c0.8,1.7,1.6,3.5,2.4,5.4H168h32.3
			C195.7,179.4,189.1,166,187.1,162z M105.4,102l0.2,0l18.3,0.1l0,0l6.3,0l10.4,0c7.2,0,13.9,5.4,13.9,12.6s-6.7,12.6-13.9,12.6
			l-35.2,0V102z"/>
		<path class="st1" d="M155.4,63.1v-7.7h8.4V21.4H134v33.9h-8.4v7l17.2,0C147.2,62.4,151.4,62.6,155.4,63.1z"/>
		<polygon class="st1" points="113.3,62.4 113.3,55.4 121.7,55.4 121.7,41.1 91.9,41.1 91.9,55.3 83.5,55.3 83.5,62.4 105.4,62.4 		
			"/>
		<polygon class="st1" points="112.4,120.2 123.9,120.2 123.9,109 112.4,109 		"/>
		<path class="st1" d="M150,193.6l-1.1-2.4c-8.8-19.9-10.5-22.1-17.3-22.1l-19.2-0.1v28.8H96.8v6.7h29.8v-25.2h11.6v47.8H168v-29.3
			h-16.2L150,193.6z"/>
	</g>
</g>
</svg>
